<svg width="362" height="362" viewBox="0 0 362 362" fill="none" xmlns="http://www.w3.org/2000/svg">
   <style>
    @keyframes spin {
      0% {
        transform: rotate(0deg);
      }
      100% {
        transform: rotate(360deg);
      }
    }

    #play {
      animation: spin 10s linear infinite;
      transform-origin: center;
    }
  </style>
  <path id="play" fill-rule="evenodd" clip-rule="evenodd"
    d="M158.027 6.50571C180.942 3.48891 204.227 5.01507 226.552 10.9971C248.877 16.9791 269.806 27.2997 288.142 41.3698C306.479 55.4399 321.864 72.9839 333.42 93C344.977 113.016 352.477 135.112 355.494 158.027C358.511 180.942 356.985 204.227 351.003 226.552C345.021 248.877 334.7 269.806 320.63 288.142C306.56 306.479 289.016 321.864 269 333.42C248.984 344.977 226.888 352.477 203.973 355.494C181.058 358.511 157.773 356.985 135.448 351.003C113.123 345.021 92.1945 334.7 73.858 320.63C55.5215 306.56 40.1359 289.016 28.5795 269C17.0232 248.984 9.52251 226.888 6.50571 203.973C3.48891 181.058 5.01507 157.773 10.9971 135.448C16.9791 113.123 27.2997 92.1945 41.3698 73.858C55.4399 55.5215 72.9839 40.1358 93 28.5795C113.016 17.0232 135.113 9.52251 158.027 6.50571ZM225.517 14.8608C210.967 10.962 195.999 9.00002 181 9.00001V25.7252C146.819 25.7252 113.593 37.004 86.4747 57.8122C59.3569 78.6205 39.8629 107.795 31.0161 140.812L14.8608 136.483C9.01473 158.301 7.52325 181.056 10.4715 203.45C11.4535 210.91 12.9218 218.281 14.8608 225.517L47.7022 216.717C50.8104 228.317 55.4325 239.511 61.4885 250C73.6005 270.979 91.0214 288.4 112 300.512C122.489 306.568 133.683 311.19 145.283 314.298L136.483 347.139C158.301 352.985 181.056 354.477 203.451 351.529C210.91 350.546 218.281 349.078 225.517 347.139L206.908 277.69C223.881 273.142 239.357 264.207 251.782 251.782C264.207 239.357 273.142 223.881 277.69 206.908C282.238 189.935 282.238 172.065 277.69 155.092C273.142 138.119 264.207 122.643 251.782 110.218L275.752 86.2477C283.998 94.4931 291.167 103.815 297.047 114L300.512 112C294.456 101.511 287.072 91.9108 278.581 83.4193L302.622 59.3776C297.325 54.0802 291.676 49.1235 285.707 44.5432C267.787 30.7929 247.335 20.7068 225.517 14.8608ZM51.5659 215.682C48.5479 204.418 47 192.761 47 181C47 157.478 53.1916 134.371 64.9526 114C76.7135 93.6295 93.6294 76.7136 114 64.9526C134.371 53.1917 157.478 47 181 47C204.522 47 227.629 53.1916 248 64.9526C258.185 70.8331 267.507 78.0023 275.752 86.2477L278.581 83.4193C270.089 74.9277 260.489 67.5445 250 61.4885C229.021 49.3765 205.224 43 181 43C156.776 43 132.979 49.3765 112 61.4885C91.0213 73.6006 73.6005 91.0214 61.4885 112C49.3765 132.979 43 156.776 43 181C43 193.112 44.5941 205.117 47.7022 216.717L51.5659 215.682ZM146.318 310.434C157.582 313.452 169.239 315 181 315V319C168.888 319 156.883 317.406 145.283 314.298L146.318 310.434ZM146.318 310.434L151.563 290.862C132.278 285.695 114.693 275.542 100.575 261.425C86.458 247.307 76.3054 229.722 71.138 210.437L51.5659 215.682C54.584 226.945 59.0721 237.815 64.9526 248C76.7136 268.371 93.6295 285.286 114 297.047C124.185 302.928 135.055 307.416 146.318 310.434ZM159.582 10.3387C159.238 10.3819 158.894 10.4262 158.55 10.4715C157.856 10.5627 157.164 10.6581 156.472 10.7577C157.507 10.6086 158.544 10.469 159.582 10.3387ZM88.6731 35.8801C94.2132 32.3553 99.9362 29.16 105.812 26.3043C102.146 28.086 98.5398 29.9999 95 32.0436C92.8618 33.2781 90.7524 34.5573 88.6731 35.8801ZM157.706 94.0667C172.966 89.9778 189.034 89.9778 204.294 94.0667L203.259 97.9304C188.677 94.0232 173.323 94.0232 158.742 97.9304C144.16 101.838 130.864 109.514 120.189 120.189C109.514 130.863 101.838 144.16 97.9305 158.742C94.0233 173.323 94.0233 188.677 97.9305 203.258C101.838 217.84 109.514 231.137 120.189 241.811C130.864 252.486 144.16 260.162 158.742 264.07C173.323 267.977 188.677 267.977 203.259 264.07C217.84 260.162 231.137 252.486 241.811 241.811L244.64 244.64C233.469 255.811 219.554 263.844 204.294 267.933C189.034 272.022 172.966 272.022 157.706 267.933C142.446 263.844 128.532 255.811 117.361 244.64C106.189 233.469 98.1557 219.554 94.0668 204.294C89.9779 189.034 89.9779 172.966 94.0668 157.706C98.1557 142.446 106.189 128.531 117.361 117.36C128.532 106.189 142.446 98.1556 157.706 94.0667ZM181 247C217.451 247 247 217.451 247 181C247 144.549 217.451 115 181 115C144.549 115 115 144.549 115 181C115 217.451 144.549 247 181 247Z"
    fill="black" />
  <path d="M217 181.5L154 220L154 143L217 181.5Z" fill="white" />
</svg>